
<svg class="logo-slogan" viewBox="0 0 1369 210" version="1.1" xmlns="http://www.w3.org/2000/svg" xmlns:xlink="http://www.w3.org/1999/xlink">
    <g id="Page-1" stroke="none" stroke-width="1" fill="current" fill-rule="evenodd">
        <g id="Artboard" transform="translate(0.000000, 1.000000)" fill="current" fill-rule="nonzero">
            <g id="logo-BASENOTE_text_slogan" transform="translate(0.000000, -1.000000)">
                <g id="6caefc52-33de-42b4-9093-839cfb945b04" transform="translate(255.305708, -0.000000)">
                    <path d="M48.2285714,117.6 C74.2857143,117.6 91.5428571,108.685714 91.5428571,84.3428571 C91.5428571,70.7428571 82.4,60.8 68.6857143,57.4857143 C81.2571429,53.2571429 86.7428571,43.2 86.7428571,32.3428571 C86.7428571,11.8857143 69.8285714,2.4 46.4,2.4 L-3.55271368e-14,2.4 L-3.55271368e-14,117.6 L48.2285714,117.6 Z M21.9428571,20.4571429 L41.9428571,20.4571429 C54.7428571,20.4571429 64.3428571,23.0857143 64.3428571,34.2857143 C64.3428571,44.9142857 56,49.7142857 43.8857143,49.7142857 L21.9428571,49.7142857 L21.9428571,20.4571429 Z M21.9428571,67.8857143 L45.0285714,67.8857143 C58.7428571,67.8857143 68.6857143,72.1142857 68.6857143,84.3428571 C68.6857143,95.5428571 60.4571429,99.5428571 47.0857143,99.5428571 L21.9428571,99.5428571 L21.9428571,67.8857143 Z M145.485714,2.4 L100,117.6 L122.857143,117.6 L131.428571,94.7428571 L179.085714,94.7428571 L187.542857,117.6 L210.857143,117.6 L166.285714,2.4 L145.485714,2.4 Z M155.428571,29.9428571 L172.228571,75.8857143 L138.4,75.8857143 L155.428571,29.9428571 Z M215.542857,80.8 C217.257143,105.714286 233.028571,120 263.085714,120 C284.457143,120 306.742857,108.8 306.742857,84.6857143 C306.742857,65.9428571 295.085714,56.3428571 278.285714,51.5428571 C267.2,48.4571429 254.057143,44.8 248.8,42.7428571 C243.085714,40.4571429 240.8,37.2571429 240.8,32.4571429 C240.8,24.1142857 249.142857,19.5428571 260,19.5428571 C273.828571,19.5428571 279.542857,26.2857143 281.028571,36.4571429 L303.085714,35.3142857 C301.485714,11.3142857 286.057143,3.17206578e-16 259.428571,3.17206578e-16 C238.857143,3.17206578e-16 219.2,11.0857143 219.2,34.4 C219.2,45.2571429 222.742857,57.1428571 243.085714,63.3142857 C249.942857,65.6 265.028571,69.2571429 271.085714,71.5428571 C280.228571,74.7428571 283.542857,78.7428571 283.542857,85.4857143 C283.542857,95.5428571 274.628571,100.457143 262.4,100.457143 C247.657143,100.457143 238.628571,94.5142857 237.257143,79.5428571 L215.542857,80.8 Z M409.828571,117.6 L409.828571,97.2571429 L347.657143,97.2571429 L347.657143,68.9142857 L400.228571,68.9142857 L400.228571,48.6857143 L347.657143,48.6857143 L347.657143,22.7428571 L408.228571,22.7428571 L408.228571,2.4 L325.257143,2.4 L325.257143,117.6 L409.828571,117.6 Z M453.257143,117.6 L453.257143,39.3142857 L506.285714,117.6 L529.028571,117.6 L529.028571,2.4 L507.2,2.4 L507.2,80.6857143 L454.285714,2.4 L431.542857,2.4 L431.542857,117.6 L453.257143,117.6 Z M547.542857,60 C547.542857,94.2857143 567.2,120 602.4,120 C637.485714,120 657.142857,94.2857143 657.142857,60 C657.142857,25.7142857 637.485714,3.17206578e-16 602.4,3.17206578e-16 C567.2,3.17206578e-16 547.542857,25.7142857 547.542857,60 Z M570.742857,60 C570.742857,35.5428571 582.857143,19.5428571 602.4,19.5428571 C621.828571,19.5428571 633.828571,35.5428571 633.828571,60 C633.828571,84.4571429 621.828571,100.457143 602.4,100.457143 C582.4,100.457143 570.742857,84.4571429 570.742857,60 Z M722.4,117.6 L722.4,22.7428571 L758.857143,22.7428571 L758.857143,2.4 L663.542857,2.4 L663.542857,22.7428571 L700,22.7428571 L700,117.6 L722.4,117.6 Z M859.428571,117.6 L859.428571,97.2571429 L797.257143,97.2571429 L797.257143,68.9142857 L849.828571,68.9142857 L849.828571,48.6857143 L797.257143,48.6857143 L797.257143,22.7428571 L857.828571,22.7428571 L857.828571,2.4 L774.857143,2.4 L774.857143,117.6 L859.428571,117.6 Z" id="Shape"></path>
                </g>
                <g id="da68b837-f9f5-4552-bbbe-ef4548996e4f" transform="translate(0.000000, 149.790005)">
                    <path d="M39.7058844,4.91596664 L4.41176494,4.91596664 L4.41176494,27.4159678 L32.3319345,27.4159678 L32.3319345,31.5756319 L4.41176494,31.5756319 L4.41176494,59.1176501 L3.91843441e-14,59.1176501 L3.91843441e-14,0.882352987 L39.7058844,0.882352987 L39.7058844,4.91596664 Z M100.021014,0.882352987 L100.021014,59.1176501 L95.6092487,59.1176501 L95.6092487,0.882352987 L100.021014,0.882352987 Z M207.226902,0.882352987 L207.226902,59.1176501 L201.743708,59.1176501 L170.861353,13.4243704 L166.575639,5.6722692 L166.449589,5.6722692 L166.764715,12.983194 L166.764715,59.1176501 L162.479,59.1176501 L162.479,0.882352987 L168.088244,0.882352987 L198.844548,46.5126075 L203.256313,54.3277339 L203.067237,47.0168092 L203.067237,0.882352987 L207.226902,0.882352987 Z M288.08825,0.882352987 L288.08825,0.882352987 C297.373965,0.882352987 304.537831,3.34033631 309.579848,8.25630295 L309.579848,8.25630295 L309.579848,8.25630295 C314.579848,13.1722696 317.079848,20.2731103 317.079848,29.5588251 L317.079848,29.5588251 L317.079848,29.5588251 C317.079848,39.0966407 314.579848,46.4075654 309.579848,51.4915993 L309.579848,51.4915993 L309.579848,51.4915993 C304.537831,56.5756332 297.373965,59.1176501 288.08825,59.1176501 L288.08825,59.1176501 L269.684888,59.1176501 L269.684888,0.882352987 L288.08825,0.882352987 Z M288.403376,55.0840365 L288.403376,55.0840365 C296.176486,55.0840365 302.142873,52.878154 306.302537,48.4663891 L306.302537,48.4663891 L306.302537,48.4663891 C310.420184,44.096641 312.479008,37.7941196 312.479008,29.5588251 L312.479008,29.5588251 L312.479008,29.5588251 C312.479008,21.659665 310.420184,15.5882361 306.302537,11.3445384 L306.302537,11.3445384 L306.302537,11.3445384 C302.142873,7.0588239 296.176486,4.91596664 288.403376,4.91596664 L288.403376,4.91596664 L274.096653,4.91596664 L274.096653,55.0840365 L288.403376,55.0840365 Z M482.079857,0.882352987 L461.470612,36.4285733 L461.470612,59.1176501 L457.058847,59.1176501 L457.058847,36.4285733 L436.386577,0.882352987 L441.61767,0.882352987 L459.26473,31.8277328 L476.91179,0.882352987 L482.079857,0.882352987 Z M557.521037,-2.79888172e-15 L557.521037,-2.79888172e-15 C562.983223,-2.79888172e-15 567.731122,1.21848746 571.764736,3.65546238 L571.764736,3.65546238 L571.764736,3.65546238 C575.798349,6.09243729 578.907593,9.55882403 581.092467,14.0546226 L581.092467,14.0546226 L581.092467,14.0546226 C583.277341,18.5504211 584.369778,23.8655475 584.369778,30 L584.369778,30 L584.369778,30 C584.369778,36.1344557 583.277341,41.449582 581.092467,45.9453805 L581.092467,45.9453805 L581.092467,45.9453805 C578.907593,50.4411791 575.798349,53.9075658 571.764736,56.3445408 L571.764736,56.3445408 L571.764736,56.3445408 C567.731122,58.7815157 562.983223,60 557.521037,60 L557.521037,60 L557.521037,60 C552.058852,60 547.310953,58.7815157 543.277339,56.3445408 L543.277339,56.3445408 L543.277339,56.3445408 C539.243726,53.9075658 536.134482,50.4411791 533.949608,45.9453805 L533.949608,45.9453805 L533.949608,45.9453805 C531.80675,41.449582 530.735322,36.1344557 530.735322,30 L530.735322,30 L530.735322,30 C530.735322,23.8655475 531.80675,18.5504211 533.949608,14.0546226 L533.949608,14.0546226 L533.949608,14.0546226 C536.134482,9.55882403 539.243726,6.09243729 543.277339,3.65546238 L543.277339,3.65546238 L543.277339,3.65546238 C547.310953,1.21848746 552.058852,-2.79888172e-15 557.521037,-2.79888172e-15 L557.521037,-2.79888172e-15 Z M557.521037,4.03361366 L557.521037,4.03361366 C552.983222,4.03361366 549.05465,5.08403388 545.735323,7.18487432 L545.735323,7.18487432 L545.735323,7.18487432 C542.415995,9.28571477 539.873978,12.2899166 538.109272,16.1974798 L538.109272,16.1974798 L538.109272,16.1974798 C536.302549,20.1050431 535.399188,24.7058836 535.399188,30.0000016 L535.399188,30.0000016 L535.399188,30.0000016 C535.399188,35.2941195 536.302549,39.8949601 538.109272,43.8025233 L538.109272,43.8025233 L538.109272,43.8025233 C539.873978,47.7100865 542.415995,50.7142884 545.735323,52.8151288 L545.735323,52.8151288 L545.735323,52.8151288 C549.05465,54.9159692 552.983222,55.9663895 557.521037,55.9663895 L557.521037,55.9663895 L557.521037,55.9663895 C562.058853,55.9663895 566.008433,54.9159692 569.369778,52.8151288 L569.369778,52.8151288 L569.369778,52.8151288 C572.731122,50.7142884 575.294148,47.7100865 577.058854,43.8025233 L577.058854,43.8025233 L577.058854,43.8025233 C578.865576,39.8949601 579.768938,35.2941195 579.768938,30.0000016 L579.768938,30.0000016 L579.768938,30.0000016 C579.768938,24.7058836 578.865576,20.1050431 577.058854,16.1974798 L577.058854,16.1974798 L577.058854,16.1974798 C575.294148,12.2899166 572.731122,9.28571477 569.369778,7.18487432 L569.369778,7.18487432 L569.369778,7.18487432 C566.008433,5.08403388 562.058853,4.03361366 557.521037,4.03361366 L557.521037,4.03361366 Z M687.352977,0.882352987 L687.352977,37.8781532 L687.352977,37.8781532 C687.352977,45.0210107 685.399195,50.5042043 681.491632,54.3277339 L681.491632,54.3277339 L681.491632,54.3277339 C677.626086,58.1092467 672.100875,60.0000031 664.916,60.0000031 L664.916,60.0000031 L664.916,60.0000031 C657.731127,60.0000031 652.184908,58.1092467 648.277345,54.3277339 L648.277345,54.3277339 L648.277345,54.3277339 C644.369781,50.5042043 642.416,45.0210107 642.416,37.8781532 L642.416,37.8781532 L642.416,0.882352987 L646.827765,0.882352987 L646.827765,36.9958002 L646.827765,36.9958002 C646.827765,43.214288 648.361378,47.9201706 651.428605,51.113448 L651.428605,51.113448 L651.428605,51.113448 C654.495832,54.3487423 658.991631,55.9663895 664.916,55.9663895 L664.916,55.9663895 L664.916,55.9663895 C670.798354,55.9663895 675.273144,54.3487423 678.340371,51.113448 L678.340371,51.113448 L678.340371,51.113448 C681.407599,47.9201706 682.941212,43.214288 682.941212,36.9958002 L682.941212,36.9958002 L682.941212,0.882352987 L687.352977,0.882352987 Z M792.857184,59.1176501 L787.626091,59.1176501 L770.987435,33.9075648 L770.735334,33.9075648 L753.529451,33.9075648 L753.529451,59.1176501 L749.117686,59.1176501 L749.117686,0.882352987 L770.735334,0.882352987 L770.735334,0.882352987 C776.533654,0.882352987 781.155503,2.3529413 784.600881,5.29411792 L784.600881,5.29411792 L784.600881,5.29411792 C788.04626,8.23529455 789.768949,12.2689082 789.768949,17.3949589 L789.768949,17.3949589 L789.768949,17.3949589 C789.768949,21.6386566 788.529453,25.1470601 786.050461,27.9201695 L786.050461,27.9201695 L786.050461,27.9201695 C783.571469,30.7352957 780.189116,32.5420185 775.903402,33.3403379 L775.903402,33.3403379 L792.857184,59.1176501 Z M753.529451,4.91596664 L753.529451,29.7479007 L770.609284,29.7479007 L770.609284,29.7479007 C775.315166,29.7479007 778.928612,28.6764721 781.449621,26.5336148 L781.449621,26.5336148 L781.449621,26.5336148 C783.928612,24.4327744 785.168108,21.3865557 785.168108,17.3949589 L785.168108,17.3949589 L785.168108,17.3949589 C785.168108,13.403362 783.928612,10.3151266 781.449621,8.13025252 L781.449621,8.13025252 L781.449621,8.13025252 C778.928612,5.98739527 775.315166,4.91596664 770.609284,4.91596664 L770.609284,4.91596664 L753.529451,4.91596664 Z M939.390805,-2.79888172e-15 L939.390805,-2.79888172e-15 C950.357192,-2.79888172e-15 957.689126,4.28571451 961.386605,12.8571435 L961.386605,12.8571435 L957.605092,15.945379 L957.605092,15.945379 C956.134504,11.7857149 953.94963,8.76050466 951.05047,6.86974826 L951.05047,6.86974826 L951.05047,6.86974826 C948.109293,4.97899186 944.264755,4.03361366 939.516856,4.03361366 L939.516856,4.03361366 L939.516856,4.03361366 C936.113494,4.03361366 933.130301,4.57983217 930.567275,5.6722692 L930.567275,5.6722692 L930.567275,5.6722692 C928.046267,6.72268943 926.134502,8.15126093 924.831981,9.95798371 L924.831981,9.95798371 L924.831981,9.95798371 C923.487443,11.8067233 922.815174,13.8655469 922.815174,16.1344546 L922.815174,16.1344546 L922.815174,16.1344546 C922.815174,18.3613455 923.382401,20.2100851 924.516855,21.6806734 L924.516855,21.6806734 L924.516855,21.6806734 C925.609292,23.1512617 927.500048,24.411766 930.189124,25.4621862 L930.189124,25.4621862 L930.189124,25.4621862 C932.8782,26.4705896 936.575679,27.3949594 941.281562,28.2352956 L941.281562,28.2352956 L941.281562,28.2352956 C948.844587,29.5378167 954.222739,31.4285731 957.416016,33.9075648 L957.416016,33.9075648 L957.416016,33.9075648 C960.609294,36.3445397 962.205932,39.7479012 962.205932,44.1176494 L962.205932,44.1176494 L962.205932,44.1176494 C962.205932,47.2268932 961.281563,50 959.432823,52.4369775 L959.432823,52.4369775 L959.432823,52.4369775 C957.6261,54.8319356 955.063075,56.6806752 951.743747,57.9831963 L951.743747,57.9831963 L951.743747,57.9831963 C948.424419,59.3277342 944.60089,60 940.273158,60 L940.273158,60 L940.273158,60 C934.180721,60 929.033662,58.7815157 924.831981,56.3445408 L924.831981,56.3445408 L924.831981,56.3445408 C920.6303,53.9075658 917.752149,50.4831959 916.197527,46.071431 L916.197527,46.071431 L920.10509,43.0462207 L920.10509,43.0462207 C921.281561,47.2479016 923.65551,50.4411791 927.226939,52.6260532 L927.226939,52.6260532 L927.226939,52.6260532 C930.756351,54.852944 935.147108,55.9663895 940.399209,55.9663895 L940.399209,55.9663895 L940.399209,55.9663895 C945.441226,55.9663895 949.579881,54.9369777 952.815176,52.878154 L952.815176,52.878154 L952.815176,52.878154 C956.008453,50.8193304 957.605092,47.9831958 957.605092,44.3697502 L957.605092,44.3697502 L957.605092,44.3697502 C957.605092,41.2605064 956.302571,38.802523 953.697527,36.9958002 L953.697527,36.9958002 L953.697527,36.9958002 C951.05047,35.1470607 946.491646,33.6764723 940.021057,32.5840353 L940.021057,32.5840353 L940.021057,32.5840353 C934.558872,31.6176487 930.231141,30.4621865 927.037863,29.1176486 L927.037863,29.1176486 L927.037863,29.1176486 C923.886603,27.7731107 921.617695,26.0924383 920.23114,24.0756315 L920.23114,24.0756315 L920.23114,24.0756315 C918.844586,22.1008415 918.151308,19.6008414 918.151308,16.5756311 L918.151308,16.5756311 L918.151308,16.5756311 C918.151308,13.5924377 919.012653,10.8403367 920.735342,8.31932816 L920.735342,8.31932816 L920.735342,8.31932816 C922.500048,5.75630282 924.97904,3.73949599 928.172317,2.26890768 L928.172317,2.26890768 L928.172317,2.26890768 C931.365595,0.75630256 935.105091,-2.79888172e-15 939.390805,-2.79888172e-15 L939.390805,-2.79888172e-15 Z M1066.19753,44.3697502 L1066.19753,44.3697502 C1064.55888,49.3277337 1061.70174,53.1722717 1057.62611,55.9033643 L1057.62611,55.9033643 L1057.62611,55.9033643 C1053.50846,58.6344568 1048.6135,60 1042.94123,60 L1042.94123,60 L1042.94123,60 C1037.64711,60 1032.98325,58.7815157 1028.94963,56.3445408 L1028.94963,56.3445408 L1028.94963,56.3445408 C1024.95804,53.9075658 1021.8698,50.4201707 1019.68493,45.8823553 L1019.68493,45.8823553 L1019.68493,45.8823553 C1017.54207,41.34454 1016.47064,36.050422 1016.47064,30 L1016.47064,30 L1016.47064,30 C1016.47064,23.9495811 1017.54207,18.6554632 1019.68493,14.1176478 L1019.68493,14.1176478 L1019.68493,14.1176478 C1021.8698,9.57983243 1024.95804,6.09243729 1028.94963,3.65546238 L1028.94963,3.65546238 L1028.94963,3.65546238 C1032.98325,1.21848746 1037.6051,-2.79888172e-15 1042.81518,-2.79888172e-15 L1042.81518,-2.79888172e-15 L1042.81518,-2.79888172e-15 C1054.45384,-2.79888172e-15 1061.99585,4.78991622 1065.44123,14.3697486 L1065.44123,14.3697486 L1061.09249,16.3865555 L1061.09249,16.3865555 C1059.74795,12.2689082 1057.58409,9.18067275 1054.6009,7.12184911 L1054.6009,7.12184911 L1054.6009,7.12184911 C1051.6177,5.06302547 1047.77316,4.03361366 1043.06728,4.03361366 L1043.06728,4.03361366 L1043.06728,4.03361366 C1038.73955,4.03361366 1034.91602,5.08403388 1031.59669,7.18487432 L1031.59669,7.18487432 L1031.59669,7.18487432 C1028.27736,9.28571477 1025.69333,12.2899166 1023.84459,16.1974798 L1023.84459,16.1974798 L1023.84459,16.1974798 C1022.03787,20.1050431 1021.13451,24.7058836 1021.13451,30 L1021.13451,30 L1021.13451,30 C1021.13451,35.2941195 1022.03787,39.8949601 1023.84459,43.8025233 L1023.84459,43.8025233 L1023.84459,43.8025233 C1025.6093,47.7100865 1028.13031,50.7142884 1031.40762,52.8151288 L1031.40762,52.8151288 L1031.40762,52.8151288 C1034.68493,54.9159692 1038.52947,55.9663895 1042.94123,55.9663895 L1042.94123,55.9663895 L1042.94123,55.9663895 C1047.64711,55.9663895 1051.63871,54.8109272 1054.91602,52.5 L1054.91602,52.5 L1054.91602,52.5 C1058.19333,50.1890782 1060.48325,46.9327756 1061.78577,42.7310947 L1061.78577,42.7310947 L1066.19753,44.3697502 Z M1127.71014,55.0840365 L1164.51687,55.0840365 L1164.51687,59.1176501 L1123.29838,59.1176501 L1123.29838,0.882352987 L1163.06729,0.882352987 L1163.06729,4.91596664 L1127.71014,4.91596664 L1127.71014,27.4159678 L1155.69334,27.4159678 L1155.69334,31.5756319 L1127.71014,31.5756319 L1127.71014,55.0840365 Z M1266.17654,0.882352987 L1266.17654,59.1176501 L1260.69334,59.1176501 L1229.81099,13.4243704 L1225.46225,5.6722692 L1225.39922,5.6722692 L1225.65132,12.983194 L1225.65132,59.1176501 L1221.42864,59.1176501 L1221.42864,0.882352987 L1226.97485,0.882352987 L1257.79418,46.5126075 L1262.20595,54.3277339 L1262.01687,47.0168092 L1262.01687,0.882352987 L1266.17654,0.882352987 Z M1368.34041,0.882352987 L1368.34041,4.91596664 L1347.03789,4.91596664 L1347.03789,59.1176501 L1342.62612,59.1176501 L1342.62612,4.91596664 L1321.38662,4.91596664 L1321.38662,0.882352987 L1368.34041,0.882352987 Z" id="Shape"></path>
                </g>
            </g>
        </g>
    </g>
</svg>