
<svg viewBox="0 0 536 90" version="1.1" xmlns="http://www.w3.org/2000/svg" xmlns:xlink="http://www.w3.org/1999/xlink">
    <g id="Page-1" stroke="none" stroke-width="1" fill="current" fill-rule="evenodd">
        <g id="Artboard" fill="current" fill-rule="nonzero">
            <g id="logo-BASENOTE_icon_text" transform="translate(0.000000, -0.000000)">
                <g id="68c1c26f-261e-4950-ad8f-16e7897084eb" transform="translate(106.230820, 14.285406)">
                    <path d="M24.1142857,58.8 C37.1428571,58.8 45.7714286,54.3428571 45.7714286,42.1714286 C45.7714286,35.3714286 41.2,30.4 34.3428571,28.7428571 C40.6285714,26.6285714 43.3714286,21.6 43.3714286,16.1714286 C43.3714286,5.94285714 34.9142857,1.2 23.2,1.2 L-1.77635684e-14,1.2 L-1.77635684e-14,58.8 L24.1142857,58.8 Z M10.9714286,10.2285714 L20.9714286,10.2285714 C27.3714286,10.2285714 32.1714286,11.5428571 32.1714286,17.1428571 C32.1714286,22.4571429 28,24.8571429 21.9428571,24.8571429 L10.9714286,24.8571429 L10.9714286,10.2285714 Z M10.9714286,33.9428571 L22.5142857,33.9428571 C29.3714286,33.9428571 34.3428571,36.0571429 34.3428571,42.1714286 C34.3428571,47.7714286 30.2285714,49.7714286 23.5428571,49.7714286 L10.9714286,49.7714286 L10.9714286,33.9428571 Z M72.7428571,1.2 L50,58.8 L61.4285714,58.8 L65.7142857,47.3714286 L89.5428571,47.3714286 L93.7714286,58.8 L105.428571,58.8 L83.1428571,1.2 L72.7428571,1.2 Z M77.7142857,14.9714286 L86.1142857,37.9428571 L69.2,37.9428571 L77.7142857,14.9714286 Z M107.771429,40.4 C108.628571,52.8571429 116.514286,60 131.542857,60 C142.228571,60 153.371429,54.4 153.371429,42.3428571 C153.371429,32.9714286 147.542857,28.1714286 139.142857,25.7714286 C133.6,24.2285714 127.028571,22.4 124.4,21.3714286 C121.542857,20.2285714 120.4,18.6285714 120.4,16.2285714 C120.4,12.0571429 124.571429,9.77142857 130,9.77142857 C136.914286,9.77142857 139.771429,13.1428571 140.514286,18.2285714 L151.542857,17.6571429 C150.742857,5.65714286 143.028571,1.58603289e-16 129.714286,1.58603289e-16 C119.428571,1.58603289e-16 109.6,5.54285714 109.6,17.2 C109.6,22.6285714 111.371429,28.5714286 121.542857,31.6571429 C124.971429,32.8 132.514286,34.6285714 135.542857,35.7714286 C140.114286,37.3714286 141.771429,39.3714286 141.771429,42.7428571 C141.771429,47.7714286 137.314286,50.2285714 131.2,50.2285714 C123.828571,50.2285714 119.314286,47.2571429 118.628571,39.7714286 L107.771429,40.4 Z M204.914286,58.8 L204.914286,48.6285714 L173.828571,48.6285714 L173.828571,34.4571429 L200.114286,34.4571429 L200.114286,24.3428571 L173.828571,24.3428571 L173.828571,11.3714286 L204.114286,11.3714286 L204.114286,1.2 L162.628571,1.2 L162.628571,58.8 L204.914286,58.8 Z M226.628571,58.8 L226.628571,19.6571429 L253.142857,58.8 L264.514286,58.8 L264.514286,1.2 L253.6,1.2 L253.6,40.3428571 L227.142857,1.2 L215.771429,1.2 L215.771429,58.8 L226.628571,58.8 Z M273.771429,30 C273.771429,47.1428571 283.6,60 301.2,60 C318.742857,60 328.571429,47.1428571 328.571429,30 C328.571429,12.8571429 318.742857,1.58603289e-16 301.2,1.58603289e-16 C283.6,1.58603289e-16 273.771429,12.8571429 273.771429,30 Z M285.371429,30 C285.371429,17.7714286 291.428571,9.77142857 301.2,9.77142857 C310.914286,9.77142857 316.914286,17.7714286 316.914286,30 C316.914286,42.2285714 310.914286,50.2285714 301.2,50.2285714 C291.2,50.2285714 285.371429,42.2285714 285.371429,30 Z M361.2,58.8 L361.2,11.3714286 L379.428571,11.3714286 L379.428571,1.2 L331.771429,1.2 L331.771429,11.3714286 L350,11.3714286 L350,58.8 L361.2,58.8 Z M429.714286,58.8 L429.714286,48.6285714 L398.628571,48.6285714 L398.628571,34.4571429 L424.914286,34.4571429 L424.914286,24.3428571 L398.628571,24.3428571 L398.628571,11.3714286 L428.914286,11.3714286 L428.914286,1.2 L387.428571,1.2 L387.428571,58.8 L429.714286,58.8 Z" id="Shape"></path>
                </g>
                <g id="cc053431-4a1b-4fb4-b1cd-09c4d0bb44b5" transform="translate(0.000000, 0.000000)">
                    <path d="M64.2555767,90 L37.4677337,90 C29.2253205,90 21.6336241,85.5534357 17.6208702,78.2870977 L2.87128867,51.6077075 C-0.165389887,46.1850672 -0.816106721,39.8948045 1.02759098,33.9299002 C2.87128867,27.9649959 6.88404248,23.1930724 12.5235884,20.3732995 L48.3130143,2.37013372 C57.2061443,-2.07643131 68.1598777,-0.124280807 74.9924045,7.03360437 L80.7404032,13.2154143 C84.753157,17.4450737 86.9222131,22.9761668 86.9222131,28.7241655 L86.9222131,67.2249115 C86.9222131,79.805437 76.7276493,90 64.2555767,90 Z M58.3991252,3.23775617 C55.4708994,3.23775617 52.4342209,3.888473 49.7229007,5.29835948 L13.9334749,23.3015252 C9.1615514,25.6874869 5.69106162,29.8086936 4.17272234,34.9059754 C2.65438306,40.0032573 3.19664709,45.3174448 5.69106162,49.9809154 L20.4406432,76.6603056 C23.8026802,82.8421155 30.3098485,86.6379637 37.3592809,86.6379637 L64.1471239,86.6379637 C74.8839516,86.6379637 83.5601761,77.9617393 83.5601761,67.2249115 L83.5601761,28.8326183 C83.5601761,23.8437893 81.7164784,19.1803186 78.2459886,15.601376 L72.4979899,9.41956609 C68.8105945,5.40681228 63.6048599,3.23775617 58.3991252,3.23775617 Z" id="Shape"></path>
                </g>
            </g>
        </g>
    </g>
</svg>