
<svg viewBox="0 0 452 91" version="1.1" xmlns="http://www.w3.org/2000/svg" xmlns:xlink="http://www.w3.org/1999/xlink">
    <g id="Page-1" stroke="none" stroke-width="1" fill="current" fill-rule="evenodd">
        <g id="Artboard" transform="translate(0.000000, 1.000000)" fill="current" fill-rule="nonzero">
            <g id="logo-BASENOTE_icon_text_slogan" transform="translate(-0.000000, -0.075406)">
                <g id="2396e42d-3efd-4364-ac43-4b656250ba39" transform="translate(104.108820, 9.075406)">
                    <path d="M19.4722857,48.51 C29.9928571,48.51 36.9604286,44.8328571 36.9604286,34.7914286 C36.9604286,29.1814286 33.269,25.08 27.7318571,23.7128571 C32.8075714,21.9685714 35.0224286,17.82 35.0224286,13.3414286 C35.0224286,4.90285714 28.1932857,0.99 18.734,0.99 L-1.43440815e-14,0.99 L-1.43440815e-14,48.51 L19.4722857,48.51 Z M8.85942857,8.43857143 L16.9344286,8.43857143 C22.1024286,8.43857143 25.9784286,9.52285714 25.9784286,14.1428571 C25.9784286,18.5271429 22.61,20.5071429 17.7188571,20.5071429 L8.85942857,20.5071429 L8.85942857,8.43857143 Z M8.85942857,28.0028571 L18.1802857,28.0028571 C23.7174286,28.0028571 27.7318571,29.7471429 27.7318571,34.7914286 C27.7318571,39.4114286 24.4095714,41.0614286 19.0108571,41.0614286 L8.85942857,41.0614286 L8.85942857,28.0028571 Z M58.7398571,0.99 L40.375,48.51 L49.6035714,48.51 L53.0642857,39.0814286 L72.3058571,39.0814286 L75.7204286,48.51 L85.1335714,48.51 L67.1378571,0.99 L58.7398571,0.99 Z M62.7542857,12.3514286 L69.5372857,31.3028571 L55.879,31.3028571 L62.7542857,12.3514286 Z M87.0254286,33.33 C87.7175714,43.6071429 94.0852857,49.5 106.220857,49.5 C114.849571,49.5 123.847429,44.88 123.847429,34.9328571 C123.847429,27.2014286 119.140857,23.2414286 112.357857,21.2614286 C107.882,19.9885714 102.575571,18.48 100.453,17.6314286 C98.1458571,16.6885714 97.223,15.3685714 97.223,13.3885714 C97.223,9.94714286 100.591429,8.06142857 104.975,8.06142857 C110.558286,8.06142857 112.865429,10.8428571 113.465286,15.0385714 L122.370857,14.5671429 C121.724857,4.66714286 115.495571,1.30847714e-16 104.744286,1.30847714e-16 C96.4385714,1.30847714e-16 88.502,4.57285714 88.502,14.19 C88.502,18.6685714 89.9324286,23.5714286 98.1458571,26.1171429 C100.914429,27.06 107.005286,28.5685714 109.450857,29.5114286 C113.142286,30.8314286 114.480429,32.4814286 114.480429,35.2628571 C114.480429,39.4114286 110.881286,41.4385714 105.944,41.4385714 C99.9915714,41.4385714 96.3462857,38.9871429 95.7925714,32.8114286 L87.0254286,33.33 Z M165.468286,48.51 L165.468286,40.1185714 L140.366571,40.1185714 L140.366571,28.4271429 L161.592286,28.4271429 L161.592286,20.0828571 L140.366571,20.0828571 L140.366571,9.38142857 L164.822286,9.38142857 L164.822286,0.99 L131.322571,0.99 L131.322571,48.51 L165.468286,48.51 Z M183.002571,48.51 L183.002571,16.2171429 L204.412857,48.51 L213.595286,48.51 L213.595286,0.99 L204.782,0.99 L204.782,33.2828571 L183.417857,0.99 L174.235429,0.99 L174.235429,48.51 L183.002571,48.51 Z M221.070429,24.75 C221.070429,38.8928571 229.007,49.5 243.219,49.5 C257.384857,49.5 265.321429,38.8928571 265.321429,24.75 C265.321429,10.6071429 257.384857,1.30847714e-16 243.219,1.30847714e-16 C229.007,1.30847714e-16 221.070429,10.6071429 221.070429,24.75 Z M230.437429,24.75 C230.437429,14.6614286 235.328571,8.06142857 243.219,8.06142857 C251.063286,8.06142857 255.908286,14.6614286 255.908286,24.75 C255.908286,34.8385714 251.063286,41.4385714 243.219,41.4385714 C235.144,41.4385714 230.437429,34.8385714 230.437429,24.75 Z M291.669,48.51 L291.669,9.38142857 L306.388571,9.38142857 L306.388571,0.99 L267.905429,0.99 L267.905429,9.38142857 L282.625,9.38142857 L282.625,48.51 L291.669,48.51 Z M346.994286,48.51 L346.994286,40.1185714 L321.892571,40.1185714 L321.892571,28.4271429 L343.118286,28.4271429 L343.118286,20.0828571 L321.892571,20.0828571 L321.892571,9.38142857 L346.348286,9.38142857 L346.348286,0.99 L312.848571,0.99 L312.848571,48.51 L346.994286,48.51 Z" id="Shape"></path>
                </g>
                <g id="26de7836-2273-400a-ae1a-14f66ce1964c">
                    <path d="M64.2555767,90 L37.4677337,90 C29.2253205,90 21.6336241,85.5534357 17.6208702,78.2870977 L2.87128867,51.6077075 C-0.165389887,46.1850672 -0.816106721,39.8948045 1.02759098,33.9299002 C2.87128867,27.9649959 6.88404248,23.1930724 12.5235884,20.3732995 L48.3130143,2.37013372 C57.2061443,-2.07643131 68.1598777,-0.124280807 74.9924045,7.03360437 L80.7404032,13.2154143 C84.753157,17.4450737 86.9222131,22.9761668 86.9222131,28.7241655 L86.9222131,67.2249115 C86.9222131,79.805437 76.7276493,90 64.2555767,90 Z M58.3991252,3.23775617 C55.4708994,3.23775617 52.4342209,3.888473 49.7229007,5.29835948 L13.9334749,23.3015252 C9.1615514,25.6874869 5.69106162,29.8086936 4.17272234,34.9059754 C2.65438306,40.0032573 3.19664709,45.3174448 5.69106162,49.9809154 L20.4406432,76.6603056 C23.8026802,82.8421155 30.3098485,86.6379637 37.3592809,86.6379637 L64.1471239,86.6379637 C74.8839516,86.6379637 83.5601761,77.9617393 83.5601761,67.2249115 L83.5601761,28.8326183 C83.5601761,23.8437893 81.7164784,19.1803186 78.2459886,15.601376 L72.4979899,9.41956609 C68.8105945,5.40681228 63.6048599,3.23775617 58.3991252,3.23775617 Z" id="Shape"></path>
                </g>
                <g id="4483d8ec-a0aa-4943-ab20-ec2dfa68ae4c" transform="translate(106.230824, 70.285404)">
                    <path d="M9.97540475,1.23505011 L1.10837831,1.23505011 L1.10837831,6.88777947 L8.12282958,6.88777947 L8.12282958,7.93282187 L1.10837831,7.93282187 L1.10837831,14.8522693 L9.84437692e-15,14.8522693 L9.84437692e-15,0.221675661 L9.97540475,0.221675661 L9.97540475,1.23505011 Z M25.1285196,0.221675661 L25.1285196,14.8522693 L24.0201413,14.8522693 L24.0201413,0.221675661 L25.1285196,0.221675661 Z M52.0621124,0.221675661 L52.0621124,14.8522693 L50.6845565,14.8522693 L42.9259084,3.37263684 L41.849198,1.42505782 L41.8175301,1.42505782 L41.8967,3.26179901 L41.8967,14.8522693 L40.8199896,14.8522693 L40.8199896,0.221675661 L42.2292135,0.221675661 L49.9561936,11.6854741 L51.0645719,13.6488871 L51.01707,11.8121459 L51.01707,0.221675661 L52.0621124,0.221675661 Z M72.3771034,0.221675661 L72.3771034,0.221675661 C74.7099758,0.221675661 76.5097711,0.839200717 77.7764891,2.07425083 L77.7764891,2.07425083 L77.7764891,2.07425083 C79.0326512,3.30930094 79.6607322,5.09326221 79.6607322,7.42613465 L79.6607322,7.42613465 L79.6607322,7.42613465 C79.6607322,9.82234299 79.0326512,11.6590842 77.7764891,12.9363582 L77.7764891,12.9363582 L77.7764891,12.9363582 C76.5097711,14.2136323 74.7099758,14.8522693 72.3771034,14.8522693 L72.3771034,14.8522693 L67.7535824,14.8522693 L67.7535824,0.221675661 L72.3771034,0.221675661 Z M72.4562732,13.8388948 L72.4562732,13.8388948 C74.4091303,13.8388948 75.90808,13.2847057 76.9531224,12.1763274 L76.9531224,12.1763274 L76.9531224,12.1763274 C77.9876088,11.0785051 78.504852,9.49510749 78.504852,7.42613465 L78.504852,7.42613465 L78.504852,7.42613465 C78.504852,5.44160968 77.9876088,3.91627001 76.9531224,2.85011564 L76.9531224,2.85011564 L76.9531224,2.85011564 C75.90808,1.77340529 74.4091303,1.23505011 72.4562732,1.23505011 L72.4562732,1.23505011 L68.8619607,1.23505011 L68.8619607,13.8388948 L72.4562732,13.8388948 Z M121.114081,0.221675661 L115.936371,9.15203801 L115.936371,14.8522693 L114.827992,14.8522693 L114.827992,9.15203801 L109.634448,0.221675661 L110.948668,0.221675661 L115.382182,7.99615778 L119.815695,0.221675661 L121.114081,0.221675661 Z M140.06735,-7.0316978e-16 L140.06735,-7.0316978e-16 C141.439628,-7.0316978e-16 142.632454,0.306123532 143.645828,0.918370596 L143.645828,0.918370596 L143.645828,0.918370596 C144.659203,1.53061766 145.440346,2.40148633 145.989257,3.5309766 L145.989257,3.5309766 L145.989257,3.5309766 C146.538168,4.66046688 146.812624,5.99579884 146.812624,7.53697248 L146.812624,7.53697248 L146.812624,7.53697248 C146.812624,9.07814612 146.538168,10.4134781 145.989257,11.5429684 L145.989257,11.5429684 L145.989257,11.5429684 C145.440346,12.6724586 144.659203,13.5433273 143.645828,14.1555744 L143.645828,14.1555744 L143.645828,14.1555744 C142.632454,14.7678214 141.439628,15.073945 140.06735,15.073945 L140.06735,15.073945 L140.06735,15.073945 C138.695072,15.073945 137.502246,14.7678214 136.488871,14.1555744 L136.488871,14.1555744 L136.488871,14.1555744 C135.475497,13.5433273 134.694354,12.6724586 134.145443,11.5429684 L134.145443,11.5429684 L134.145443,11.5429684 C133.607088,10.4134781 133.33791,9.07814612 133.33791,7.53697248 L133.33791,7.53697248 L133.33791,7.53697248 C133.33791,5.99579884 133.607088,4.66046688 134.145443,3.5309766 L134.145443,3.5309766 L134.145443,3.5309766 C134.694354,2.40148633 135.475497,1.53061766 136.488871,0.918370596 L136.488871,0.918370596 L136.488871,0.918370596 C137.502246,0.306123532 138.695072,-7.0316978e-16 140.06735,-7.0316978e-16 L140.06735,-7.0316978e-16 Z M140.06735,1.01337445 L140.06735,1.01337445 C138.927304,1.01337445 137.940319,1.27727405 137.106396,1.80507324 L137.106396,1.80507324 L137.106396,1.80507324 C136.272474,2.33287243 135.633837,3.08762528 135.190485,4.06933178 L135.190485,4.06933178 L135.190485,4.06933178 C134.736578,5.05103828 134.509624,6.20691851 134.509624,7.53697248 L134.509624,7.53697248 L134.509624,7.53697248 C134.509624,8.86702645 134.736578,10.0229067 135.190485,11.0046132 L135.190485,11.0046132 L135.190485,11.0046132 C135.633837,11.9863197 136.272474,12.7410725 137.106396,13.2688717 L137.106396,13.2688717 L137.106396,13.2688717 C137.940319,13.7966709 138.927304,14.0605705 140.06735,14.0605705 L140.06735,14.0605705 L140.06735,14.0605705 C141.207396,14.0605705 142.199659,13.7966709 143.044137,13.2688717 L143.044137,13.2688717 L143.044137,13.2688717 C143.888616,12.7410725 144.532531,11.9863197 144.975882,11.0046132 L144.975882,11.0046132 L144.975882,11.0046132 C145.42979,10.0229067 145.656743,8.86702645 145.656743,7.53697248 L145.656743,7.53697248 L145.656743,7.53697248 C145.656743,6.20691851 145.42979,5.05103828 144.975882,4.06933178 L144.975882,4.06933178 L144.975882,4.06933178 C144.532531,3.08762528 143.888616,2.33287243 143.044137,1.80507324 L143.044137,1.80507324 L143.044137,1.80507324 C142.199659,1.27727405 141.207396,1.01337445 140.06735,1.01337445 L140.06735,1.01337445 Z M172.68534,0.221675661 L172.68534,9.51621945 L172.68534,9.51621945 C172.68534,11.3107367 172.194487,12.6882926 171.21278,13.6488871 L171.21278,13.6488871 L171.21278,13.6488871 C170.24163,14.5989257 168.853518,15.073945 167.048445,15.073945 L167.048445,15.073945 L167.048445,15.073945 C165.243371,15.073945 163.849982,14.5989257 162.868275,13.6488871 L162.868275,13.6488871 L162.868275,13.6488871 C161.886569,12.6882926 161.395715,11.3107367 161.395715,9.51621945 L161.395715,9.51621945 L161.395715,0.221675661 L162.504094,0.221675661 L162.504094,9.29454379 L162.504094,9.29454379 C162.504094,10.8568294 162.889387,12.0390996 163.659974,12.8413544 L163.659974,12.8413544 L163.659974,12.8413544 C164.430561,13.6541651 165.560051,14.0605705 167.048445,14.0605705 L167.048445,14.0605705 L167.048445,14.0605705 C168.526282,14.0605705 169.650495,13.6541651 170.421082,12.8413544 L170.421082,12.8413544 L170.421082,12.8413544 C171.191668,12.0390996 171.576962,10.8568294 171.576962,9.29454379 L171.576962,9.29454379 L171.576962,0.221675661 L172.68534,0.221675661 Z M199.191416,14.8522693 L197.877196,14.8522693 L193.697026,8.51867898 L193.63369,8.51867898 L189.311015,8.51867898 L189.311015,14.8522693 L188.202636,14.8522693 L188.202636,0.221675661 L193.63369,0.221675661 L193.63369,0.221675661 C195.090416,0.221675661 196.251574,0.591135096 197.117165,1.33005397 L197.117165,1.33005397 L197.117165,1.33005397 C197.982755,2.06897284 198.415551,3.08234729 198.415551,4.37017732 L198.415551,4.37017732 L198.415551,4.37017732 C198.415551,5.43633169 198.104149,6.31775634 197.481346,7.01445128 L197.481346,7.01445128 L197.481346,7.01445128 C196.858543,7.7217022 196.008786,8.1756095 194.932076,8.3761732 L194.932076,8.3761732 L199.191416,14.8522693 Z M189.311015,1.23505011 L189.311015,7.47363658 L193.602022,7.47363658 L193.602022,7.47363658 C194.784292,7.47363658 195.692107,7.20445899 196.325466,6.66610381 L196.325466,6.66610381 L196.325466,6.66610381 C196.948269,6.13830462 197.25967,5.37299579 197.25967,4.37017732 L197.25967,4.37017732 L197.25967,4.37017732 C197.25967,3.36735885 196.948269,2.59149404 196.325466,2.04258288 L196.325466,2.04258288 L196.325466,2.04258288 C195.692107,1.5042277 194.784292,1.23505011 193.602022,1.23505011 L193.602022,1.23505011 L189.311015,1.23505011 Z M236.005409,-7.0316978e-16 L236.005409,-7.0316978e-16 C238.760521,-7.0316978e-16 240.60254,1.07671035 241.531467,3.23013106 L241.531467,3.23013106 L240.581428,4.00599588 L240.581428,4.00599588 C240.211969,2.96095347 239.663058,2.20092264 238.934695,1.72590336 L238.934695,1.72590336 L238.934695,1.72590336 C238.195776,1.25088409 237.229903,1.01337445 236.037077,1.01337445 L236.037077,1.01337445 L236.037077,1.01337445 C235.182043,1.01337445 234.432568,1.15060224 233.788653,1.42505782 L233.788653,1.42505782 L233.788653,1.42505782 C233.155294,1.68895742 232.674996,2.04786087 232.347761,2.50176818 L232.347761,2.50176818 L232.347761,2.50176818 C232.009969,2.96623147 231.841074,3.48347468 231.841074,4.0534978 L231.841074,4.0534978 L231.841074,4.0534978 C231.841074,4.61296495 231.983579,5.07742824 232.268591,5.44688767 L232.268591,5.44688767 L232.268591,5.44688767 C232.543047,5.81634711 233.018066,6.13302663 233.693649,6.39692622 L233.693649,6.39692622 L233.693649,6.39692622 C234.369232,6.65026983 235.298158,6.88250148 236.480429,7.09362116 L236.480429,7.09362116 L236.480429,7.09362116 C238.380506,7.42085666 239.731672,7.89587593 240.533926,8.51867898 L240.533926,8.51867898 L240.533926,8.51867898 C241.336181,9.13092604 241.737308,9.98596074 241.737308,11.0837831 L241.737308,11.0837831 L241.737308,11.0837831 C241.737308,11.8649259 241.505077,12.5616208 241.040614,13.1738679 L241.040614,13.1738679 L241.040614,13.1738679 C240.586706,13.7755589 239.942791,14.2400222 239.108869,14.5672577 L239.108869,14.5672577 L239.108869,14.5672577 C238.274946,14.9050492 237.314351,15.073945 236.227085,15.073945 L236.227085,15.073945 L236.227085,15.073945 C234.696467,15.073945 233.403359,14.7678214 232.347761,14.1555744 L232.347761,14.1555744 L232.347761,14.1555744 C231.292162,13.5433273 230.569078,12.6830146 230.178506,11.5746363 L230.178506,11.5746363 L231.160213,10.8146055 L231.160213,10.8146055 C231.45578,11.8702039 232.052193,12.6724586 232.949452,13.2213698 L232.949452,13.2213698 L232.949452,13.2213698 C233.836155,13.7808369 234.939255,14.0605705 236.258753,14.0605705 L236.258753,14.0605705 L236.258753,14.0605705 C237.525471,14.0605705 238.565235,13.8019489 239.378046,13.2847057 L239.378046,13.2847057 L239.378046,13.2847057 C240.180301,12.7674625 240.581428,12.0549336 240.581428,11.147119 L240.581428,11.147119 L240.581428,11.147119 C240.581428,10.3659762 240.254193,9.7484511 239.599722,9.29454379 L239.599722,9.29454379 L239.599722,9.29454379 C238.934695,8.8300805 237.789371,8.46062107 236.163749,8.18616549 L236.163749,8.18616549 L236.163749,8.18616549 C234.791471,7.94337786 233.704205,7.6530883 232.90195,7.31529682 L232.90195,7.31529682 L232.90195,7.31529682 C232.110251,6.97750533 231.540228,6.55526598 231.191881,6.04857875 L231.191881,6.04857875 L231.191881,6.04857875 C230.843533,5.55244751 230.669359,4.92436647 230.669359,4.16433563 L230.669359,4.16433563 L230.669359,4.16433563 C230.669359,3.41486078 230.885757,2.72344384 231.318552,2.09008481 L231.318552,2.09008481 L231.318552,2.09008481 C231.761904,1.44616979 232.384707,0.939482564 233.186962,0.570023129 L233.186962,0.570023129 L233.186962,0.570023129 C233.989216,0.19000771 234.928699,-7.0316978e-16 236.005409,-7.0316978e-16 L236.005409,-7.0316978e-16 Z M267.863369,11.147119 L267.863369,11.147119 C267.451685,12.3927251 266.733878,13.3585976 265.709948,14.0447365 L265.709948,14.0447365 L265.709948,14.0447365 C264.675461,14.7308755 263.445689,15.073945 262.020631,15.073945 L262.020631,15.073945 L262.020631,15.073945 C260.690578,15.073945 259.518863,14.7678214 258.505489,14.1555744 L258.505489,14.1555744 L258.505489,14.1555744 C257.50267,13.5433273 256.726806,12.6671806 256.177894,11.5271344 L256.177894,11.5271344 L256.177894,11.5271344 C255.639539,10.3870881 255.370362,9.05703416 255.370362,7.53697248 L255.370362,7.53697248 L255.370362,7.53697248 C255.370362,6.0169108 255.639539,4.68685684 256.177894,3.54681058 L256.177894,3.54681058 L256.177894,3.54681058 C256.726806,2.40676432 257.50267,1.53061766 258.505489,0.918370596 L258.505489,0.918370596 L258.505489,0.918370596 C259.518863,0.306123532 260.680022,-7.0316978e-16 261.988964,-7.0316978e-16 L261.988964,-7.0316978e-16 L261.988964,-7.0316978e-16 C264.912971,-7.0316978e-16 266.80777,1.20338216 267.673361,3.61014648 L267.673361,3.61014648 L266.580817,4.11683371 L266.580817,4.11683371 C266.243025,3.08234729 265.699392,2.30648247 264.949917,1.78923927 L264.949917,1.78923927 L264.949917,1.78923927 C264.200442,1.27199606 263.23457,1.01337445 262.052299,1.01337445 L262.052299,1.01337445 L262.052299,1.01337445 C260.965033,1.01337445 260.004439,1.27727405 259.170516,1.80507324 L259.170516,1.80507324 L259.170516,1.80507324 C258.336593,2.33287243 257.6874,3.08762528 257.222937,4.06933178 L257.222937,4.06933178 L257.222937,4.06933178 C256.76903,5.05103828 256.542076,6.20691851 256.542076,7.53697248 L256.542076,7.53697248 L256.542076,7.53697248 C256.542076,8.86702645 256.76903,10.0229067 257.222937,11.0046132 L257.222937,11.0046132 L257.222937,11.0046132 C257.666288,11.9863197 258.299647,12.7410725 259.123014,13.2688717 L259.123014,13.2688717 L259.123014,13.2688717 C259.946381,13.7966709 260.912253,14.0605705 262.020631,14.0605705 L262.020631,14.0605705 L262.020631,14.0605705 C263.202902,14.0605705 264.20572,13.770281 265.029087,13.1897018 L265.029087,13.1897018 L265.029087,13.1897018 C265.852454,12.6091227 266.427755,11.791034 266.75499,10.7354356 L266.75499,10.7354356 L267.863369,11.147119 Z M283.317329,13.8388948 L292.564371,13.8388948 L292.564371,14.8522693 L282.208951,14.8522693 L282.208951,0.221675661 L292.200189,0.221675661 L292.200189,1.23505011 L283.317329,1.23505011 L283.317329,6.88777947 L290.347614,6.88777947 L290.347614,7.93282187 L283.317329,7.93282187 L283.317329,13.8388948 Z M318.104574,0.221675661 L318.104574,14.8522693 L316.727018,14.8522693 L308.96837,3.37263684 L307.875825,1.42505782 L307.859991,1.42505782 L307.923327,3.26179901 L307.923327,14.8522693 L306.862451,14.8522693 L306.862451,0.221675661 L308.255841,0.221675661 L315.998655,11.6854741 L317.107033,13.6488871 L317.059531,11.8121459 L317.059531,0.221675661 L318.104574,0.221675661 Z M343.771449,0.221675661 L343.771449,1.23505011 L338.419565,1.23505011 L338.419565,14.8522693 L337.311186,14.8522693 L337.311186,1.23505011 L331.975137,1.23505011 L331.975137,0.221675661 L343.771449,0.221675661 Z" id="Shape"></path>
                </g>
            </g>
        </g>
    </g>
</svg>